<svg width="24" height="24" viewBox="0 0 24 24" fill="none" xmlns="http://www.w3.org/2000/svg">
<path fill-rule="evenodd" clip-rule="evenodd" d="M10.0098 13.1089L9.51481 13.2039L7.59181 11.2809C7.08694 10.776 6.68647 10.1766 6.41327 9.51688C6.14006 8.85718 5.99947 8.15013 5.99951 7.43609C5.99961 5.99403 6.57255 4.61107 7.59231 3.59144C8.61207 2.57182 9.9951 1.99905 11.4372 1.99915C12.8792 1.99924 14.2622 2.57219 15.2818 3.59194L17.2038 5.51494L17.1078 6.00994L17.1068 6.01894L17.0938 6.07294C17.073 6.15497 17.0496 6.23634 17.0238 6.31694C16.9538 6.53694 16.8338 6.86194 16.6388 7.26494C16.2508 8.07094 15.5628 9.18794 14.3748 10.3749C13.1868 11.5639 12.0708 12.2509 11.2648 12.6399C10.8618 12.8339 10.5348 12.9539 10.3168 13.0229C10.2186 13.0547 10.1192 13.0827 10.0188 13.1069L10.0098 13.1089ZM13.5298 4.46894C13.4606 4.39734 13.3778 4.34025 13.2863 4.30098C13.1948 4.26172 13.0963 4.24108 12.9968 4.24026C12.8972 4.23944 12.7984 4.25847 12.7063 4.29622C12.6141 4.33397 12.5304 4.3897 12.46 4.46016C12.3896 4.53061 12.334 4.61437 12.2963 4.70656C12.2586 4.79875 12.2397 4.89752 12.2406 4.9971C12.2415 5.09669 12.2623 5.19509 12.3016 5.28658C12.341 5.37806 12.3981 5.46079 12.4698 5.52994L13.9698 7.02994C14.0385 7.10363 14.1213 7.16273 14.2133 7.20372C14.3053 7.24472 14.4046 7.26676 14.5053 7.26853C14.606 7.27031 14.706 7.25179 14.7994 7.21407C14.8928 7.17634 14.9776 7.1202 15.0488 7.04898C15.1201 6.97776 15.1762 6.89293 15.2139 6.79954C15.2517 6.70615 15.2702 6.60612 15.2684 6.50542C15.2666 6.40472 15.2446 6.3054 15.2036 6.21341C15.1626 6.12141 15.1035 6.03861 15.0298 5.96994L13.5298 4.46894Z" fill="#A3A3A3"/>
<path d="M20.4081 8.71799L18.4551 6.76599L18.4521 6.77399C18.3621 7.05399 18.2171 7.44599 17.9901 7.91699C17.5361 8.85999 16.7541 10.118 15.4361 11.437C14.1181 12.755 12.8591 13.537 11.9161 13.991C11.5463 14.171 11.1643 14.325 10.7731 14.452L10.7661 14.455L12.7191 16.407C13.2217 16.922 13.8215 17.3321 14.4838 17.6136C15.1461 17.895 15.8577 18.0422 16.5773 18.0466C17.2969 18.0509 18.0102 17.9124 18.6759 17.639C19.3415 17.3656 19.9463 16.9628 20.4551 16.454C20.9639 15.9451 21.3666 15.3403 21.6399 14.6746C21.9132 14.0089 22.0517 13.2956 22.0472 12.576C22.0427 11.8564 21.8955 11.1448 21.6139 10.4825C21.3324 9.82029 20.9222 9.22052 20.4071 8.71799" fill="#A3A3A3"/>
<path opacity="0.5" d="M6.71706 10.1379C6.95106 10.5469 7.24306 10.9319 7.59206 11.2819L12.7191 16.4079C13.0681 16.7579 13.4531 17.0489 13.8621 17.2839C13.6167 18.4051 13.0544 19.4322 12.2421 20.2429C11.5829 20.9016 10.7793 21.3977 9.8951 21.6919C9.01087 21.9861 8.07028 22.0703 7.14786 21.9378C6.22545 21.8053 5.34658 21.4597 4.58091 20.9286C3.81525 20.3974 3.18383 19.6952 2.73671 18.8775C2.2896 18.0599 2.03907 17.1494 2.00499 16.2182C1.97091 15.2869 2.15422 14.3605 2.54038 13.5124C2.92654 12.6643 3.50494 11.9178 4.22974 11.3321C4.95453 10.7464 5.8068 10.3375 6.71706 10.1379Z" fill="#A3A3A3"/>
</svg>
