<svg width="14" height="14" viewBox="0 0 14 14" fill="none" xmlns="http://www.w3.org/2000/svg">
<mask id="mask0_9_3394" style="mask-type:luminance" maskUnits="userSpaceOnUse" x="1" y="1" width="12" height="12">
<path d="M12.8332 6.99996C12.8332 10.2217 10.2216 12.8333 6.99984 12.8333C3.77809 12.8333 1.1665 10.2217 1.1665 6.99996C1.1665 3.77821 3.77809 1.16663 6.99984 1.16663C10.2216 1.16663 12.8332 3.77821 12.8332 6.99996Z" fill="white"/>
<path fill-rule="evenodd" clip-rule="evenodd" d="M7 4.22913C7.11603 4.22913 7.22731 4.27522 7.30936 4.35727C7.39141 4.43931 7.4375 4.55059 7.4375 4.66663V6.81913L8.7675 8.14913C8.81048 8.18918 8.84496 8.23748 8.86887 8.29115C8.89278 8.34481 8.90564 8.40274 8.90668 8.46149C8.90772 8.52023 8.89691 8.57858 8.8749 8.63306C8.8529 8.68753 8.82015 8.73702 8.77861 8.77856C8.73706 8.82011 8.68758 8.85286 8.6331 8.87486C8.57862 8.89687 8.52027 8.90767 8.46153 8.90664C8.40279 8.9056 8.34485 8.89274 8.29119 8.86883C8.23752 8.84492 8.18922 8.81044 8.14917 8.76746L6.69083 7.30913C6.60876 7.22716 6.5626 7.11595 6.5625 6.99996V4.66663C6.5625 4.55059 6.60859 4.43931 6.69064 4.35727C6.77269 4.27522 6.88397 4.22913 7 4.22913Z" fill="black"/>
</mask>
<g mask="url(#mask0_9_3394)">
<path d="M0 0H14V14H0V0Z" fill="#0165FC"/>
</g>
</svg>
