<svg width="14" height="14" viewBox="0 0 14 14" fill="none" xmlns="http://www.w3.org/2000/svg">
<path d="M5.6875 7C5.6875 6.6519 5.82578 6.31806 6.07192 6.07192C6.31806 5.82578 6.6519 5.6875 7 5.6875C7.3481 5.6875 7.68194 5.82578 7.92808 6.07192C8.17422 6.31806 8.3125 6.6519 8.3125 7C8.3125 7.3481 8.17422 7.68194 7.92808 7.92808C7.68194 8.17422 7.3481 8.3125 7 8.3125C6.6519 8.3125 6.31806 8.17422 6.07192 7.92808C5.82578 7.68194 5.6875 7.3481 5.6875 7Z" fill="#0165FC"/>
<path fill-rule="evenodd" clip-rule="evenodd" d="M1.1665 7.00004C1.1665 7.95671 1.41442 8.27812 1.91025 8.92271C2.90017 10.2084 4.56034 11.6667 6.99984 11.6667C9.43934 11.6667 11.0995 10.2084 12.0894 8.92271C12.5853 8.27871 12.8332 7.95612 12.8332 7.00004C12.8332 6.04337 12.5853 5.72196 12.0894 5.07737C11.0995 3.79171 9.43934 2.33337 6.99984 2.33337C4.56034 2.33337 2.90017 3.79171 1.91025 5.07737C1.41442 5.72254 1.1665 6.04396 1.1665 7.00004ZM6.99984 4.81254C6.41968 4.81254 5.86328 5.04301 5.45304 5.45324C5.04281 5.86348 4.81234 6.41988 4.81234 7.00004C4.81234 7.5802 5.04281 8.1366 5.45304 8.54684C5.86328 8.95707 6.41968 9.18754 6.99984 9.18754C7.58 9.18754 8.1364 8.95707 8.54663 8.54684C8.95687 8.1366 9.18734 7.5802 9.18734 7.00004C9.18734 6.41988 8.95687 5.86348 8.54663 5.45324C8.1364 5.04301 7.58 4.81254 6.99984 4.81254Z" fill="#0165FC"/>
</svg>
