<svg width="14" height="14" viewBox="0 0 14 14" fill="none" xmlns="http://www.w3.org/2000/svg">
<path fill-rule="evenodd" clip-rule="evenodd" d="M7 6.85413C7.11603 6.85413 7.22731 6.90022 7.30936 6.98227C7.39141 7.06431 7.4375 7.17559 7.4375 7.29163V7.72913H7.875C7.99103 7.72913 8.10231 7.77522 8.18436 7.85727C8.26641 7.93931 8.3125 8.05059 8.3125 8.16663C8.3125 8.28266 8.26641 8.39394 8.18436 8.47598C8.10231 8.55803 7.99103 8.60413 7.875 8.60413H7.4375V9.04163C7.4375 9.15766 7.39141 9.26894 7.30936 9.35099C7.22731 9.43303 7.11603 9.47913 7 9.47913C6.88397 9.47913 6.77269 9.43303 6.69064 9.35099C6.60859 9.26894 6.5625 9.15766 6.5625 9.04163V8.60413H6.125C6.00897 8.60413 5.89769 8.55803 5.81564 8.47598C5.73359 8.39394 5.6875 8.28266 5.6875 8.16663C5.6875 8.05059 5.73359 7.93931 5.81564 7.85727C5.89769 7.77522 6.00897 7.72913 6.125 7.72913H6.5625V7.29163C6.5625 7.17559 6.60859 7.06431 6.69064 6.98227C6.77269 6.90022 6.88397 6.85413 7 6.85413Z" fill="#0165FC"/>
<path fill-rule="evenodd" clip-rule="evenodd" d="M6.9695 0.729126C6.44509 0.729126 6.00817 0.729126 5.66167 0.775793C5.29534 0.824793 4.96459 0.933293 4.69917 1.19871C4.43317 1.46471 4.32467 1.79546 4.27567 2.16121C4.229 2.50829 4.229 2.94579 4.229 3.46963V3.51513C3.05009 3.55363 2.34192 3.69129 1.85017 4.18363C1.1665 4.86671 1.1665 5.96688 1.1665 8.16663C1.1665 10.3664 1.1665 11.4665 1.85017 12.1496C2.53325 12.8333 3.63342 12.8333 5.83317 12.8333H8.1665C10.3663 12.8333 11.4664 12.8333 12.1495 12.1496C12.8332 11.4665 12.8332 10.3664 12.8332 8.16663C12.8332 5.96688 12.8332 4.86671 12.1495 4.18363C11.6578 3.69129 10.9496 3.55363 9.77067 3.51513V3.46963C9.77067 2.94579 9.77067 2.50829 9.724 2.16179C9.675 1.79546 9.5665 1.46471 9.3005 1.19929C9.03509 0.933293 8.70434 0.824793 8.338 0.775793C7.9915 0.729126 7.554 0.729126 7.03017 0.729126H6.9695ZM8.89567 3.50113V3.49996C8.89567 2.93763 8.8945 2.55963 8.85717 2.27788C8.82042 2.00896 8.758 1.89346 8.68217 1.81763C8.60634 1.74179 8.49084 1.67938 8.22134 1.64263C7.94017 1.60529 7.56217 1.60413 6.99984 1.60413C6.4375 1.60413 6.0595 1.60529 5.77775 1.64321C5.50884 1.67938 5.39334 1.74179 5.3175 1.81821C5.24167 1.89404 5.17925 2.00896 5.1425 2.27788C5.10575 2.55963 5.104 2.93763 5.104 3.49996V3.50113C5.33267 3.49996 5.57534 3.49996 5.83317 3.49996H8.1665C8.42434 3.49996 8.667 3.49996 8.89567 3.50113ZM9.33317 8.16663C9.33317 8.78547 9.08734 9.37896 8.64975 9.81654C8.21217 10.2541 7.61868 10.5 6.99984 10.5C6.381 10.5 5.78751 10.2541 5.34992 9.81654C4.91234 9.37896 4.6665 8.78547 4.6665 8.16663C4.6665 7.54779 4.91234 6.9543 5.34992 6.51671C5.78751 6.07913 6.381 5.83329 6.99984 5.83329C7.61868 5.83329 8.21217 6.07913 8.64975 6.51671C9.08734 6.9543 9.33317 7.54779 9.33317 8.16663Z" fill="#0165FC"/>
</svg>
