<svg width="32" height="36" viewBox="0 0 32 36" fill="none" xmlns="http://www.w3.org/2000/svg">
<circle cx="16" cy="16" r="16" fill="#1570FF"/>
<path d="M18.9337 7.83337C17.2982 7.83337 15.7296 8.48307 14.5732 9.63955C13.4167 10.796 12.767 12.3645 12.767 14V17.4334H9.46699C9.30131 17.4334 9.16699 17.5677 9.16699 17.7334V22.2667C9.16699 22.4324 9.30131 22.5667 9.46699 22.5667H12.767V31.8667C12.767 32.0324 12.9013 32.1667 13.067 32.1667H17.6003C17.766 32.1667 17.9003 32.0324 17.9003 31.8667V22.5667H21.2296C21.3672 22.5667 21.4872 22.473 21.5206 22.3395L22.6539 17.8061C22.7013 17.6168 22.5581 17.4334 22.3629 17.4334H17.9003V14C17.9003 13.726 18.0092 13.4632 18.203 13.2694C18.3968 13.0756 18.6596 12.9667 18.9337 12.9667H22.4003C22.566 12.9667 22.7003 12.8324 22.7003 12.6667V8.13337C22.7003 7.96769 22.566 7.83337 22.4003 7.83337H18.9337Z" fill="white"/>
</svg>
