<svg width="24" height="24" viewBox="0 0 24 24" fill="none" xmlns="http://www.w3.org/2000/svg">
<path fill-rule="evenodd" clip-rule="evenodd" d="M14.121 12L17.304 8.8185L15.1815 6.696L12 9.879L8.8185 6.696L6.696 8.82L9.879 12L6.696 15.1815L8.8185 17.304L12 14.121L15.1815 17.304L17.304 15.1815L14.121 12ZM0 12C0 18.627 5.385 24 12 24C18.627 24 24 18.615 24 12C24 5.373 18.615 0 12 0C5.373 0 0 5.385 0 12ZM3 12C3 7.0395 7.029 3 12 3C16.9605 3 21 7.029 21 12C21 16.9605 16.971 21 12 21C7.0395 21 3 16.971 3 12Z" fill="#94A3B8"/>
</svg>
